# xmcd
#
# Track frame offsets:
#	150
#	15096
#	31489
#	41119
#	54490
#	63742
#	75947
#	96314
#	108668
#	142901
#	147261
#	162427
#
# Disc length: 2465 seconds
#
# Revision: 0
# Processed by: cddbd v1.5.2PL0 Copyright (c) Steve Scherf et al.
# Submitted via: EasyCDDAExtractor 2010.6.0.0
#
DISCID=9c099f0c
DTITLE=Vladimir Vysotsky - 19 Купола российские
DYEAR=2002
DGENRE=Vocal
TTITLE0=Охота на кабанов
TTITLE1=Песня о нотах
TTITLE2=Про любовь в каменном веке
TTITLE3=Про любовь в средние века
TTITLE4=Песенка ни про что, или Что случилось в Африке
TTITLE5=Поездка в город
TTITLE6=Моя цыганская
TTITLE7=О конце войны
TTITLE8=Две судьбы
TTITLE9=Про глупцов
TTITLE10=Разбойничья
TTITLE11=Êóïîëà
EXTD=YEAR: 2002\n
EXTT0=
EXTT1=
EXTT2=
EXTT3=
EXTT4=
EXTT5=
EXTT6=
EXTT7=
EXTT8=
EXTT9=
EXTT10=
EXTT11=
PLAYORDER=
